<svg version="1.1" id="Layer_1" xmlns="http://www.w3.org/2000/svg" xmlns:xlink="http://www.w3.org/1999/xlink" x="0px" y="0px"
	 width="100%" viewBox="0 0 457 452" enable-background="new 0 0 457 452" xml:space="preserve">
<path fill="#FEFEFF" opacity="1.000000" stroke="none" 
	d="
M458.000000,148.000000 
	C458.000000,248.472519 457.979065,348.445068 458.084930,448.417450 
	C458.088745,452.010651 457.523041,453.109894 453.584839,453.106567 
	C304.126038,452.980530 154.667084,452.981812 5.208276,453.105469 
	C1.491014,453.108551 0.909600,452.205200 0.912022,448.710449 
	C1.014448,300.917816 1.012257,153.125107 0.922727,5.332462 
	C0.920684,1.960344 1.326120,0.882103 5.165351,0.885561 
	C154.790756,1.020358 304.416321,1.016233 454.041748,0.900290 
	C457.547668,0.897573 458.100891,1.704217 458.091461,5.039907 
	C457.957306,52.526310 458.000000,100.013214 458.000000,148.000000 
z"/>
<path fill="#2765EB" opacity="1.000000" stroke="none" 
	d="
M188.000031,29.837868 
	C264.159882,29.837868 339.819794,29.872826 415.479431,29.747810 
	C419.838623,29.740610 421.343323,30.575745 421.321747,35.354553 
	C421.117737,80.516228 421.207886,125.679207 421.177185,170.841782 
	C421.175751,172.958969 422.155823,175.626709 418.145782,175.669281 
	C414.761566,175.705185 414.012177,174.466476 414.030914,171.291916 
	C414.158020,149.794617 414.097229,128.296188 414.097168,106.798126 
	C414.097137,85.133408 414.004608,63.467926 414.185425,41.804718 
	C414.216553,38.073875 413.258636,37.074234 409.486267,37.077404 
	C287.164001,37.180199 164.841690,37.179966 42.519463,37.078186 
	C38.760632,37.075058 37.801510,38.056553 37.813248,41.797028 
	C37.948154,84.792725 37.906010,127.789009 37.878796,170.785110 
	C37.877441,172.923492 38.816109,175.549271 34.861153,175.664383 
	C31.463339,175.763290 30.701887,174.536407 30.730305,171.346100 
	C30.875774,155.015533 30.797472,138.682968 30.797462,122.351105 
	C30.797447,93.353722 30.921652,64.355270 30.673925,35.360004 
	C30.633152,30.587805 32.144619,29.733047 36.514313,29.745615 
	C86.842552,29.890390 137.171356,29.837923 188.000031,29.837868 
z"/>
<path fill="#2765EB" opacity="1.000000" stroke="none" 
	d="
M421.200714,286.045807 
	C421.200623,330.033691 421.140808,373.530548 421.296844,417.026642 
	C421.311676,421.164124 420.283264,422.261292 416.098267,422.257416 
	C289.441498,422.140320 162.784531,422.135193 36.127777,422.272400 
	C31.635746,422.277283 30.679300,421.081573 30.695198,416.754120 
	C30.861103,371.591553 30.782343,326.428070 30.853025,281.265015 
	C30.855846,279.462463 29.490093,276.666626 33.244663,276.399292 
	C36.411461,276.173767 38.068764,276.717377 37.992245,280.605255 
	C37.743061,293.266022 37.899139,305.934814 37.899158,318.600494 
	C37.899204,348.931488 37.973431,379.262878 37.809452,409.592987 
	C37.787865,413.585510 38.588917,414.941284 42.909771,414.936920 
	C164.900238,414.813782 286.890900,414.804871 408.881317,414.962036 
	C413.621063,414.968140 414.192780,413.382416 414.179962,409.300598 
	C414.045715,366.637634 414.096619,323.974121 414.098572,281.310730 
	C414.098663,278.879883 413.390289,276.200531 417.544647,276.332031 
	C420.336517,276.420410 421.529694,277.178619 421.234680,280.058838 
	C421.048889,281.872894 421.200439,283.721466 421.200714,286.045807 
z"/>
<path fill="#2A67EB" opacity="1.000000" stroke="none" 
	d="
M207.043152,243.966522 
	C201.661438,229.837326 196.388321,216.079727 190.705475,201.253128 
	C188.578293,207.276108 188.736298,212.528885 188.173294,217.588760 
	C186.535675,232.306900 185.076599,247.054047 184.030594,261.824036 
	C183.652557,267.162079 180.314667,265.816742 177.444504,265.806091 
	C173.353302,265.790894 175.366760,262.783142 175.539795,261.087494 
	C177.938492,237.580231 180.439789,214.083374 182.966644,190.589417 
	C183.170776,188.691544 182.160324,185.422928 185.684692,185.992355 
	C189.220428,186.563644 193.848633,183.112900 196.075378,189.450989 
	C202.070740,206.515869 208.615997,223.387680 214.966522,240.327286 
	C215.308487,241.239426 215.866608,242.070526 216.761108,243.769196 
	C220.722366,233.732361 224.460358,224.389511 228.097794,215.007660 
	C231.517395,206.187653 234.718948,197.281693 238.233887,188.500580 
	C240.273544,183.405075 244.859451,186.479538 248.255753,185.965683 
	C251.377487,185.493362 250.753708,188.297852 250.939972,190.158707 
	C253.193451,212.673431 255.438583,235.188995 257.677521,257.705170 
	C257.809174,259.029114 257.854797,260.361359 257.966492,261.687561 
	C258.152344,263.894867 258.620636,266.219574 255.047256,265.870789 
	C252.315765,265.604187 249.124100,267.058563 248.924911,261.951965 
	C248.198212,243.321320 245.518021,224.850479 243.813675,206.296967 
	C243.694122,204.995407 243.355270,203.713974 242.248383,202.185120 
	C238.987442,210.200562 235.723969,218.214966 232.466202,226.231720 
	C228.776154,235.312256 224.921783,244.331787 221.502213,253.513168 
	C220.404694,256.459961 218.647110,256.646149 216.166550,256.634888 
	C213.728455,256.623840 211.670227,256.686401 210.801224,253.591049 
	C209.909698,250.415497 208.394180,247.415146 207.043152,243.966522 
z"/>
<path fill="#2765EB" opacity="1.000000" stroke="none" 
	d="
M40.542000,263.630188 
	C38.286411,267.668915 34.787338,265.802795 32.052589,265.518768 
	C29.805981,265.285461 30.917200,262.444336 30.911566,260.782166 
	C30.832514,237.461029 30.914942,214.138992 30.737566,190.818863 
	C30.708914,187.051956 31.471704,185.547409 35.593399,185.766052 
	C42.236546,186.118469 48.916988,185.686951 55.576469,185.829666 
	C68.279320,186.101883 75.299759,190.745972 78.279884,200.585571 
	C81.657761,211.738449 77.919601,224.291595 68.281372,230.103928 
	C63.113708,233.220291 63.788311,235.419571 66.717865,239.338577 
	C71.496086,245.730606 76.025230,252.321442 80.367775,259.017548 
	C81.429886,260.655304 85.372253,262.247864 82.060303,264.899567 
	C78.723389,267.571320 73.559448,266.793762 71.630798,263.734894 
	C67.106880,256.559906 62.723625,249.296143 58.186424,242.129715 
	C56.885513,240.074966 56.513863,236.689713 53.986816,236.288742 
	C49.925976,235.644394 45.683006,235.914383 41.535690,236.140656 
	C39.241409,236.265869 40.104809,238.441315 40.117435,239.731857 
	C40.193993,247.555908 40.403904,255.378632 40.542000,263.630188 
z"/>
<path fill="#2966EB" opacity="1.000000" stroke="none" 
	d="
M113.177200,216.903992 
	C118.795341,219.867813 124.178276,222.505554 129.366089,225.483261 
	C136.514236,229.586166 141.823120,235.270386 141.530396,244.075241 
	C141.234802,252.966522 136.591370,259.537567 128.621063,263.337372 
	C117.412704,268.680878 106.286858,266.857819 95.419205,261.993195 
	C93.408524,261.093140 93.327103,251.930115 95.189163,250.839920 
	C96.840752,249.872910 97.651443,251.514938 98.553452,252.212784 
	C103.602554,256.118988 109.235069,258.189606 115.622101,258.302917 
	C118.160950,258.347931 120.599228,257.955505 122.942139,257.027374 
	C127.828354,255.091782 130.801224,251.561584 131.544785,246.313705 
	C132.270065,241.194717 129.785706,237.568008 125.629982,235.148422 
	C120.606361,232.223541 115.337151,229.724045 110.231606,226.935379 
	C103.862640,223.456635 97.745819,219.554047 95.996353,211.843704 
	C93.255867,199.765747 101.830711,188.035843 114.689697,185.920639 
	C122.067741,184.707016 129.258713,185.399536 136.278687,187.980804 
	C137.496780,188.428680 139.146759,188.442062 138.949844,190.301651 
	C138.654968,193.086533 138.850723,196.240479 137.022034,198.379654 
	C135.708649,199.916061 134.080734,197.757919 132.738205,196.998154 
	C128.449738,194.571167 123.950928,193.080978 118.965302,193.498581 
	C111.758705,194.102203 107.071411,197.581772 105.510742,203.430862 
	C104.145073,208.549118 106.280869,212.416519 113.177200,216.903992 
z"/>
<path fill="#2D69EC" opacity="1.000000" stroke="none" 
	d="
M283.739532,250.176132 
	C282.251068,253.141541 280.953796,255.863220 280.101868,258.717834 
	C277.845184,266.279205 277.921814,266.302063 269.173523,265.526489 
	C271.828247,258.622681 274.422302,251.851761 277.034851,245.088028 
	C281.999023,232.236069 287.157166,219.454605 291.846985,206.503464 
	C293.544128,201.816650 296.974182,204.108017 299.716675,203.613739 
	C302.185089,203.168808 303.984344,203.703568 304.992065,206.641296 
	C311.346497,225.166245 317.919464,243.616135 324.379547,262.105042 
	C324.809448,263.335388 326.090332,265.627838 323.881348,265.595337 
	C321.207916,265.556000 317.351776,268.165558 315.806580,263.576813 
	C314.642975,260.121246 313.658081,256.599243 312.745575,253.067520 
	C312.094391,250.547104 310.671814,249.745758 308.089203,249.808807 
	C300.107269,250.003677 292.119324,249.950089 283.739532,250.176132 
z"/>
<path fill="#2966EB" opacity="1.000000" stroke="none" 
	d="
M350.076965,208.112152 
	C350.031342,222.727753 349.958466,236.855164 349.951263,250.982620 
	C349.947723,257.922058 350.002869,257.921967 356.719238,257.922882 
	C361.539917,257.923553 366.362762,258.010895 371.180298,257.888672 
	C373.534058,257.828979 374.715820,258.588593 374.188446,261.023102 
	C373.766693,262.970215 375.224518,265.959534 371.142273,265.894043 
	C362.001984,265.747345 352.857269,265.798615 343.715393,265.882019 
	C341.486694,265.902374 340.894531,264.971039 340.899597,262.914093 
	C340.945892,244.132812 340.981995,225.351105 340.880554,206.570267 
	C340.860596,202.877838 343.311584,203.875214 345.279266,203.717865 
	C348.120392,203.490646 350.813202,203.453735 350.076965,208.112152 
z"/>
<path fill="#2966EB" opacity="1.000000" stroke="none" 
	d="
M397.051910,265.851349 
	C387.935730,265.851440 387.979187,265.851471 387.983795,257.258026 
	C387.992584,240.938644 388.070526,224.617386 387.830200,208.301178 
	C387.774323,204.508698 388.864807,203.591858 392.559753,203.570480 
	C396.361816,203.548492 397.234619,204.660553 397.173004,208.365295 
	C396.920898,223.516418 397.125183,238.674774 396.932434,253.827545 
	C396.889923,257.168549 397.943054,258.121613 401.174744,257.987885 
	C406.827759,257.754028 412.502655,258.068604 418.158234,257.867889 
	C421.236115,257.758667 421.322998,259.415253 421.115753,261.620422 
	C420.924500,263.656006 421.640198,266.024689 418.028107,265.911041 
	C411.206268,265.696442 404.372803,265.850525 397.051910,265.851349 
z"/>
<path fill="#F9FBFE" opacity="1.000000" stroke="none" 
	d="
M46.213459,194.018341 
	C50.337265,194.117523 54.079796,193.769897 57.626022,194.448349 
	C66.147476,196.078598 69.800560,202.016205 69.003113,212.034851 
	C68.331230,220.475998 61.628025,227.503571 53.833797,227.938232 
	C40.167141,228.700378 40.163742,228.700363 40.261372,215.178879 
	C40.299812,209.854340 40.649490,204.511475 40.314560,199.211258 
	C40.040642,194.876633 41.762569,193.486954 46.213459,194.018341 
z"/>
<path fill="#F9FBFE" opacity="1.000000" stroke="none" 
	d="
M303.077209,225.877075 
	C305.027069,231.364929 306.851166,236.478989 308.859222,242.108810 
	C301.890656,242.108810 295.586090,242.108459 289.281525,242.109070 
	C287.769684,242.109222 286.518738,241.845932 287.287781,239.861771 
	C290.739380,230.956345 294.207825,222.057449 298.191895,211.815002 
	C300.082764,217.253036 301.517120,221.378174 303.077209,225.877075 
z"/>
</svg>